<svg width="37" height="37" viewBox="0 0 37 37" fill="none" xmlns="http://www.w3.org/2000/svg">
<rect width="36.4078" height="36.4078" rx="18.2039" fill="white"/>
<path d="M27.0764 19.8339C27.0764 21.1219 26.8186 22.2302 26.3306 23.0395C25.7042 24.0789 24.7305 24.6289 23.5152 24.6289C21.1953 24.6289 19.6357 21.7185 17.9851 18.6376C16.7858 16.3996 15.2974 13.6147 14.0736 13.6147C13.4839 13.6147 12.7611 14.3314 12.1874 15.4848C11.5313 16.8417 11.1829 18.3268 11.1671 19.8339C11.1671 20.7747 11.3384 21.5763 11.649 22.0918C11.9373 22.5706 12.3328 22.7932 12.8927 22.7932C13.9443 22.7932 15.2354 20.575 15.6599 19.8492C15.7826 19.6388 15.9837 19.4858 16.2192 19.4238C16.4547 19.3617 16.7051 19.3958 16.9155 19.5184C17.1258 19.641 17.2789 19.8422 17.3409 20.0776C17.4029 20.3131 17.3689 20.5636 17.2463 20.7739C16.5648 21.9426 15.982 22.7626 15.4106 23.3576C14.5899 24.2128 13.7677 24.6289 12.8927 24.6289C11.6773 24.6289 10.7036 24.0789 10.0772 23.0395C9.58918 22.2302 9.33142 21.1219 9.33142 19.8339C9.33142 16.4708 11.135 11.7791 14.0736 11.7791C16.3935 11.7791 17.953 14.6894 19.6036 17.7703C20.8045 20.0083 22.2937 22.7932 23.5152 22.7932C24.075 22.7932 24.4705 22.5706 24.7588 22.0918C25.0694 21.5763 25.2407 20.7747 25.2407 19.8339C25.2252 18.3268 24.877 16.8418 24.2211 15.4848C23.6475 14.3314 22.9247 13.6147 22.3342 13.6147C21.8967 13.6147 21.3697 13.9972 20.767 14.749C20.6148 14.9391 20.3934 15.061 20.1514 15.0878C19.9094 15.1146 19.6667 15.0442 19.4766 14.8921C19.2866 14.7399 19.1647 14.5185 19.1379 14.2765C19.1111 14.0345 19.1815 13.7918 19.3336 13.6017C20.3165 12.3757 21.2978 11.7791 22.3342 11.7791C23.6842 11.7791 24.9347 12.8047 25.8641 14.6672C26.6436 16.2792 27.0576 18.0434 27.0764 19.8339Z" fill="#062F71"/>
</svg>
