<svg width="149" height="51" viewBox="0 0 149 51" fill="none" xmlns="http://www.w3.org/2000/svg">
<rect y="7" width="36.4078" height="36.4078" rx="18.2039" fill="#062F71"/>
<g clip-path="url(#clip0_4046_9468)">
<path d="M27.0765 26.8338C27.0765 28.1218 26.8187 29.2301 26.3308 30.0394C25.7043 31.0788 24.7307 31.6288 23.5153 31.6288C21.1954 31.6288 19.6359 28.7184 17.9853 25.6375C16.786 23.3995 15.2975 20.6147 14.0737 20.6147C13.484 20.6147 12.7612 21.3313 12.1876 22.4848C11.5314 23.8416 11.183 25.3267 11.1672 26.8338C11.1672 27.7746 11.3386 28.5762 11.6491 29.0917C11.9375 29.5705 12.3329 29.7931 12.8928 29.7931C13.9445 29.7931 15.2356 27.575 15.6601 26.8491C15.7827 26.6387 15.9839 26.4857 16.2193 26.4237C16.4548 26.3616 16.7052 26.3957 16.9156 26.5183C17.126 26.6409 17.279 26.8421 17.341 27.0775C17.4031 27.313 17.369 27.5635 17.2464 27.7738C16.5649 28.9425 15.9821 29.7625 15.4107 30.3576C14.59 31.2127 13.7678 31.6288 12.8928 31.6288C11.6774 31.6288 10.7037 31.0788 10.0773 30.0394C9.5893 29.2301 9.33154 28.1218 9.33154 26.8338C9.33154 23.4707 11.1351 18.779 14.0737 18.779C16.3936 18.779 17.9531 21.6893 19.6037 24.7702C20.8046 27.0082 22.2938 29.7931 23.5153 29.7931C24.0752 29.7931 24.4706 29.5705 24.759 29.0917C25.0695 28.5762 25.2408 27.7746 25.2408 26.8338C25.2253 25.3267 24.8772 23.8417 24.2212 22.4848C23.6476 21.3313 22.9248 20.6147 22.3343 20.6147C21.8968 20.6147 21.3698 20.9971 20.7671 21.749C20.615 21.939 20.3935 22.0609 20.1516 22.0877C19.9096 22.1145 19.6668 22.0441 19.4768 21.892C19.2867 21.7398 19.1648 21.5184 19.138 21.2764C19.1112 21.0345 19.1816 20.7917 19.3337 20.6017C20.3166 19.3756 21.2979 18.779 22.3343 18.779C23.6843 18.779 24.9349 19.8047 25.8642 21.6671C26.6437 23.2791 27.0577 25.0433 27.0765 26.8338Z" fill="white"/>
</g>
<path d="M54.1373 32.2039L49.4173 26.0039V32.2039H45.9973V18.1639H49.4173V24.3239L54.0973 18.1639H58.1173L52.6773 25.0439L58.3173 32.2039H54.1373ZM79.2626 18.1639L75.6026 32.2039H71.4626L69.2226 22.9639L66.9026 32.2039H62.7626L59.2026 18.1639H62.8626L64.8826 28.3839L67.3826 18.1639H71.1426L73.5426 28.3839L75.5826 18.1639H79.2626ZM84.3978 18.1639V32.2039H80.9778V18.1639H84.3978ZM95.0162 32.2039L90.2962 26.0039V32.2039H86.8762V18.1639H90.2962V24.3239L94.9762 18.1639H98.9962L93.5562 25.0439L99.1962 32.2039H95.0162ZM112.22 32.2039L109.3 26.9039H108.48V32.2039H105.06V18.1639H110.8C111.906 18.1639 112.846 18.3573 113.62 18.7439C114.406 19.1306 114.993 19.6639 115.38 20.3439C115.766 21.0106 115.96 21.7573 115.96 22.5839C115.96 23.5173 115.693 24.3506 115.16 25.0839C114.64 25.8173 113.866 26.3373 112.84 26.6439L116.08 32.2039H112.22ZM108.48 24.4839H110.6C111.226 24.4839 111.693 24.3306 112 24.0239C112.32 23.7173 112.48 23.2839 112.48 22.7239C112.48 22.1906 112.32 21.7706 112 21.4639C111.693 21.1573 111.226 21.0039 110.6 21.0039H108.48V24.4839ZM121.527 18.1639V32.2039H118.107V18.1639H121.527ZM129.265 18.1639C130.745 18.1639 132.038 18.4573 133.145 19.0439C134.252 19.6306 135.105 20.4573 135.705 21.5239C136.318 22.5773 136.625 23.7973 136.625 25.1839C136.625 26.5573 136.318 27.7773 135.705 28.8439C135.105 29.9106 134.245 30.7373 133.125 31.3239C132.018 31.9106 130.732 32.2039 129.265 32.2039H124.005V18.1639H129.265ZM129.045 29.2439C130.338 29.2439 131.345 28.8906 132.065 28.1839C132.785 27.4773 133.145 26.4773 133.145 25.1839C133.145 23.8906 132.785 22.8839 132.065 22.1639C131.345 21.4439 130.338 21.0839 129.045 21.0839H127.425V29.2439H129.045ZM141.956 20.9039V23.7439H146.536V26.3839H141.956V29.4639H147.136V32.2039H138.536V18.1639H147.136V20.9039H141.956Z" fill="#062F71"/>
<defs>
<clipPath id="clip0_4046_9468">
<rect width="19.5806" height="19.5806" fill="white" transform="translate(8.41357 15.4136)"/>
</clipPath>
</defs>
</svg>
